<svg xmlns="http://www.w3.org/2000/svg" viewBox="0 0 512 512" width="512" height="512">
  <defs>
    <linearGradient id="bgGrad" x1="0%" y1="0%" x2="100%" y2="100%">
      <stop offset="0%" stop-color="#1e293b"/>
      <stop offset="100%" stop-color="#0f172a"/>
    </linearGradient>
    <linearGradient id="goldGrad" x1="0%" y1="0%" x2="100%" y2="100%">
      <stop offset="0%" stop-color="#fcd34d"/>
      <stop offset="100%" stop-color="#b45309"/>
    </linearGradient>
  </defs>
  <rect width="512" height="512" rx="110" fill="url(#bgGrad)"/>
  <!-- Circular shield ring -->
  <circle cx="256" cy="256" r="190" fill="none" stroke="url(#goldGrad)" stroke-width="12" stroke-dasharray="10 6"/>
  <circle cx="256" cy="256" r="172" fill="#0f172a" fill-opacity="0.8"/>
  
  <!-- Thai emblem stylized crown/pedestal & civil service book icon -->
  <!-- Document Book -->
  <path d="M160 180 C160 160, 256 150, 256 170 C256 150, 352 160, 352 180 L352 330 C352 350, 256 340, 256 360 C256 340, 160 350, 160 330 Z" fill="#ffffff" opacity="0.95"/>
  <path d="M256 170 L256 360" stroke="#cbd5e1" stroke-width="4"/>
  <!-- Lines in document -->
  <line x1="190" y1="210" x2="236" y2="210" stroke="#3b82f6" stroke-width="6" stroke-linecap="round"/>
  <line x1="190" y1="240" x2="236" y2="240" stroke="#64748b" stroke-width="5" stroke-linecap="round"/>
  <line x1="190" y1="270" x2="236" y2="270" stroke="#64748b" stroke-width="5" stroke-linecap="round"/>
  <line x1="190" y1="300" x2="220" y2="300" stroke="#10b981" stroke-width="5" stroke-linecap="round"/>

  <line x1="276" y1="210" x2="322" y2="210" stroke="#f59e0b" stroke-width="6" stroke-linecap="round"/>
  <line x1="276" y1="240" x2="322" y2="240" stroke="#64748b" stroke-width="5" stroke-linecap="round"/>
  <line x1="276" y1="270" x2="322" y2="270" stroke="#64748b" stroke-width="5" stroke-linecap="round"/>
  <line x1="276" y1="300" x2="310" y2="300" stroke="#8b5cf6" stroke-width="5" stroke-linecap="round"/>

  <!-- Star / badge emblem at bottom center -->
  <polygon points="256,110 268,136 296,138 274,156 281,184 256,168 231,184 238,156 216,138 244,136" fill="url(#goldGrad)"/>
  
  <!-- Ribbon base -->
  <path d="M190 380 Q256 365 322 380 L310 405 Q256 390 202 405 Z" fill="url(#goldGrad)"/>
</svg>
